<?xml version="1.0" encoding="UTF-8" standalone="no"?>
<!-- Created with Inkscape (http://www.inkscape.org/) -->

<svg
   xmlns:dc="http://purl.org/dc/elements/1.1/"
   xmlns:cc="http://creativecommons.org/ns#"
   xmlns:rdf="http://www.w3.org/1999/02/22-rdf-syntax-ns#"
   xmlns:svg="http://www.w3.org/2000/svg"
   xmlns="http://www.w3.org/2000/svg"
   xmlns:sodipodi="http://sodipodi.sourceforge.net/DTD/sodipodi-0.dtd"
   xmlns:inkscape="http://www.inkscape.org/namespaces/inkscape"
   width="24"
   height="24"
   id="svg27665"
   version="1.1"
   inkscape:version="0.48.4 r9939"
   sodipodi:docname="kazam-broadcast-symbolic.svg"
   inkscape:export-filename="area-24.png"
   inkscape:export-xdpi="90"
   inkscape:export-ydpi="90">
  <defs
     id="defs27667" />
  <sodipodi:namedview
     id="base"
     pagecolor="#ffffff"
     bordercolor="#666666"
     borderopacity="1.0"
     inkscape:pageopacity="0.0"
     inkscape:pageshadow="2"
     inkscape:zoom="27.860798"
     inkscape:cx="11.53803"
     inkscape:cy="13.316516"
     inkscape:document-units="px"
     inkscape:current-layer="layer1"
     showgrid="true"
     inkscape:window-width="1366"
     inkscape:window-height="740"
     inkscape:window-x="0"
     inkscape:window-y="28"
     inkscape:window-maximized="1"
     inkscape:snap-bbox="true"
     inkscape:bbox-paths="true"
     inkscape:bbox-nodes="true"
     inkscape:snap-bbox-edge-midpoints="true"
     inkscape:snap-bbox-midpoints="true"
     inkscape:object-paths="true"
     inkscape:snap-intersection-paths="true"
     inkscape:object-nodes="true"
     inkscape:snap-smooth-nodes="true"
     inkscape:snap-midpoints="true"
     inkscape:snap-object-midpoints="true"
     inkscape:snap-center="true"
     inkscape:snap-global="true"
     showguides="true"
     inkscape:guide-bbox="true"
     fit-margin-top="0"
     fit-margin-left="0"
     fit-margin-right="0"
     fit-margin-bottom="0"
     inkscape:showpageshadow="false">
    <inkscape:grid
       empspacing="5"
       visible="true"
       enabled="true"
       snapvisiblegridlinesonly="true"
       type="xygrid"
       id="grid2983" />
  </sodipodi:namedview>
  <metadata
     id="metadata27670">
    <rdf:RDF>
      <cc:Work
         rdf:about="">
        <dc:format>image/svg+xml</dc:format>
        <dc:type
           rdf:resource="http://purl.org/dc/dcmitype/StillImage" />
        <dc:title></dc:title>
      </cc:Work>
    </rdf:RDF>
  </metadata>
  <g
     inkscape:label="Sloj 1"
     inkscape:groupmode="layer"
     id="layer1"
     transform="translate(3162.1675,-1405.2535)">
    <path
       sodipodi:type="arc"
       style="fill:#bebebe;fill-opacity:1;stroke:none"
       id="path3031"
       sodipodi:cx="-17"
       sodipodi:cy="8.5"
       sodipodi:rx="4"
       sodipodi:ry="1.5"
       d="m -13,8.5 a 4,1.5 0 1 1 -8,0 4,1.5 0 1 1 8,0 z"
       transform="matrix(1.25,0,0,1.35,-3128.9175,1414.7535)" />
    <path
       sodipodi:type="arc"
       style="fill:#bebebe;fill-opacity:1;stroke:none"
       id="path3033"
       sodipodi:cx="-17"
       sodipodi:cy="3"
       sodipodi:rx="1"
       sodipodi:ry="1"
       d="m -16,3 a 1,1 0 1 1 -2,0 1,1 0 1 1 2,0 z"
       transform="matrix(2,0,0,2,-3116.1675,1409.2535)" />
    <path
       style="fill:#bebebe;stroke:none;stroke-width:1px;stroke-linecap:butt;stroke-linejoin:miter;stroke-opacity:1;fill-opacity:1"
       d="m 11,10 0,11 2,0 0,-11 z"
       id="path3035"
       inkscape:connector-curvature="0"
       transform="translate(-3162.1675,1405.2535)" />
    <path
       style="fill:#bebebe;fill-opacity:1;stroke:none"
       d="m -3153.1675,1410.2535 c -2.6129,3 -2.5962,7 -0.01,10 l -2.0209,0 c -2.524,-3.0221 -2.6775,-6.9779 0,-10 z"
       id="path3839"
       inkscape:connector-curvature="0"
       sodipodi:nodetypes="ccccc" />
    <path
       sodipodi:nodetypes="ccccc"
       inkscape:connector-curvature="0"
       id="path3851"
       d="m -3156.1675,1408.2535 c -4,3 -4,11 0,14 l -2.0209,0 c -3.9791,-3 -3.9791,-11 -0.01,-14 z"
       style="fill:#bebebe;fill-opacity:1;stroke:none" />
    <path
       sodipodi:nodetypes="ccccc"
       inkscape:connector-curvature="0"
       id="path3853"
       d="m -3147.174,1410.2535 c 2.6129,3 2.5962,7 0.01,10 l 2.0209,0 c 2.524,-3.0221 2.6775,-6.9779 0,-10 z"
       style="fill:#bebebe;fill-opacity:1;stroke:none" />
    <path
       style="fill:#bebebe;fill-opacity:1;stroke:none"
       d="m -3144.174,1408.2535 c 4,3 4,11 0,14 l 2.0209,0 c 3.9791,-3 3.9791,-11 0.01,-14 z"
       id="path3855"
       inkscape:connector-curvature="0"
       sodipodi:nodetypes="ccccc" />
  </g>
</svg>
