<?xml version="1.0" encoding="UTF-8" standalone="no"?>
<!-- Created with Inkscape (http://www.inkscape.org/) -->

<svg
   xmlns:dc="http://purl.org/dc/elements/1.1/"
   xmlns:cc="http://creativecommons.org/ns#"
   xmlns:rdf="http://www.w3.org/1999/02/22-rdf-syntax-ns#"
   xmlns:svg="http://www.w3.org/2000/svg"
   xmlns="http://www.w3.org/2000/svg"
   xmlns:xlink="http://www.w3.org/1999/xlink"
   xmlns:sodipodi="http://sodipodi.sourceforge.net/DTD/sodipodi-0.dtd"
   xmlns:inkscape="http://www.inkscape.org/namespaces/inkscape"
   width="16"
   height="16"
   id="svg2"
   version="1.1"
   inkscape:version="0.48.4 r9939"
   sodipodi:docname="32.svg"
   inkscape:export-filename="/home/me4oslav/Desktop/32/kazam.png"
   inkscape:export-xdpi="90"
   inkscape:export-ydpi="90">
  <defs
     id="defs4">
    <linearGradient
       id="linearGradient4292">
      <stop
         style="stop-color:#63570f;stop-opacity:0.68627453;"
         offset="0"
         id="stop4294" />
      <stop
         style="stop-color:#63570f;stop-opacity:0.05882353;"
         offset="1"
         id="stop4296" />
    </linearGradient>
    <linearGradient
       id="linearGradient4284">
      <stop
         style="stop-color:#63570f;stop-opacity:0.68627453;"
         offset="0"
         id="stop4286" />
      <stop
         style="stop-color:#63570f;stop-opacity:0.05882353;"
         offset="1"
         id="stop4288" />
    </linearGradient>
    <linearGradient
       id="linearGradient4123">
      <stop
         id="stop4125"
         offset="0"
         style="stop-color:#5e4b8e;stop-opacity:1;" />
      <stop
         id="stop4127"
         offset="1"
         style="stop-color:#4b3052;stop-opacity:1;" />
    </linearGradient>
    <linearGradient
       id="linearGradient4103">
      <stop
         id="stop4105"
         offset="0"
         style="stop-color:#4b3052;stop-opacity:1;" />
      <stop
         id="stop4107"
         offset="1"
         style="stop-color:#72517b;stop-opacity:1;" />
    </linearGradient>
    <linearGradient
       id="linearGradient4091">
      <stop
         style="stop-color:#bfc3af;stop-opacity:1;"
         offset="0"
         id="stop4093" />
      <stop
         style="stop-color:#e4ead3;stop-opacity:1;"
         offset="1"
         id="stop4095" />
    </linearGradient>
    <linearGradient
       id="linearGradient4077">
      <stop
         id="stop4079"
         offset="0"
         style="stop-color:#a1a399;stop-opacity:1;" />
      <stop
         id="stop4081"
         offset="1"
         style="stop-color:#f2f6e7;stop-opacity:1;" />
    </linearGradient>
    <linearGradient
       id="linearGradient4065">
      <stop
         style="stop-color:#989993;stop-opacity:1;"
         offset="0"
         id="stop4067" />
      <stop
         style="stop-color:#f6fbe6;stop-opacity:1;"
         offset="1"
         id="stop4069" />
    </linearGradient>
    <linearGradient
       gradientTransform="matrix(1.134951,0,0,1.2361642,-4.8508081,-239.56373)"
       gradientUnits="userSpaceOnUse"
       y2="1017.3622"
       x2="41"
       y1="1014.3622"
       x1="36"
       id="linearGradient3930"
       xlink:href="#linearGradient3924"
       inkscape:collect="always" />
    <linearGradient
       id="linearGradient3826">
      <stop
         id="stop3828"
         offset="0"
         style="stop-color:#949494;stop-opacity:1;" />
      <stop
         id="stop3830"
         offset="1"
         style="stop-color:#fdfdfd;stop-opacity:1;" />
    </linearGradient>
    <linearGradient
       id="linearGradient3863">
      <stop
         style="stop-color:#949498;stop-opacity:1;"
         offset="0"
         id="stop3865" />
      <stop
         style="stop-color:#d7d7d8;stop-opacity:1;"
         offset="1"
         id="stop3867" />
    </linearGradient>
    <linearGradient
       id="linearGradient3873">
      <stop
         id="stop3875"
         offset="0"
         style="stop-color:#111b46;stop-opacity:1;" />
      <stop
         id="stop3877"
         offset="1"
         style="stop-color:#1b447f;stop-opacity:1;" />
    </linearGradient>
    <linearGradient
       id="linearGradient3893">
      <stop
         style="stop-color:#2e4d72;stop-opacity:1;"
         offset="0"
         id="stop3895" />
      <stop
         style="stop-color:#353563;stop-opacity:1;"
         offset="1"
         id="stop3897" />
    </linearGradient>
    <linearGradient
       id="linearGradient3924">
      <stop
         id="stop3926"
         offset="0"
         style="stop-color:#477eae;stop-opacity:1;" />
      <stop
         id="stop3928"
         offset="1"
         style="stop-color:#5064aa;stop-opacity:1;" />
    </linearGradient>
    <linearGradient
       id="linearGradient3948">
      <stop
         id="stop3950"
         offset="0"
         style="stop-color:#ffffff;stop-opacity:0.05882353;" />
      <stop
         id="stop3952"
         offset="1"
         style="stop-color:#ffffff;stop-opacity:0.68627453;" />
    </linearGradient>
    <linearGradient
       id="linearGradient3956">
      <stop
         id="stop3958"
         offset="0"
         style="stop-color:#ffffff;stop-opacity:0.68627453;" />
      <stop
         id="stop3960"
         offset="1"
         style="stop-color:#ffffff;stop-opacity:0.05882353;" />
    </linearGradient>
    <linearGradient
       inkscape:collect="always"
       xlink:href="#linearGradient3826"
       id="linearGradient3987"
       gradientUnits="userSpaceOnUse"
       x1="-3.9999995"
       y1="35.000019"
       x2="-3.9999995"
       y2="12.00002" />
    <linearGradient
       inkscape:collect="always"
       xlink:href="#linearGradient3826"
       id="linearGradient3989"
       gradientUnits="userSpaceOnUse"
       x1="-3.9999995"
       y1="35.000019"
       x2="-3.9999995"
       y2="12.00002" />
    <linearGradient
       inkscape:collect="always"
       xlink:href="#linearGradient3863"
       id="linearGradient3991"
       gradientUnits="userSpaceOnUse"
       x1="-3.9999995"
       y1="35.000019"
       x2="-3.9999995"
       y2="12.00002" />
    <linearGradient
       inkscape:collect="always"
       xlink:href="#linearGradient3873"
       id="linearGradient3993"
       gradientUnits="userSpaceOnUse"
       x1="-3.9999995"
       y1="35.000019"
       x2="-3.9999995"
       y2="12.00002" />
    <linearGradient
       inkscape:collect="always"
       xlink:href="#linearGradient3893"
       id="linearGradient3995"
       gradientUnits="userSpaceOnUse"
       x1="-3.9999995"
       y1="35.000019"
       x2="-3.9999995"
       y2="12.00002" />
    <linearGradient
       inkscape:collect="always"
       xlink:href="#linearGradient3956"
       id="linearGradient4002"
       gradientUnits="userSpaceOnUse"
       x1="1"
       y1="24"
       x2="4"
       y2="24"
       gradientTransform="translate(117.99188,1004.8064)" />
    <linearGradient
       inkscape:collect="always"
       xlink:href="#linearGradient3948"
       id="linearGradient4005"
       gradientUnits="userSpaceOnUse"
       x1="44"
       y1="24"
       x2="47"
       y2="24"
       gradientTransform="translate(117.99188,1004.8064)" />
    <linearGradient
       inkscape:collect="always"
       xlink:href="#linearGradient4103"
       id="linearGradient4101"
       gradientUnits="userSpaceOnUse"
       x1="-13"
       y1="43.000004"
       x2="-13"
       y2="20.000004" />
    <filter
       inkscape:collect="always"
       id="filter4262"
       x="-0.49078786"
       width="1.9815757"
       y="-0.46944925"
       height="1.9388984"
       color-interpolation-filters="sRGB">
      <feGaussianBlur
         inkscape:collect="always"
         stdDeviation="4.4988888"
         id="feGaussianBlur4264" />
    </filter>
    <filter
       inkscape:collect="always"
       id="filter4280"
       x="-0.49078786"
       width="1.9815757"
       y="-0.46944925"
       height="1.9388984"
       color-interpolation-filters="sRGB">
      <feGaussianBlur
         inkscape:collect="always"
         stdDeviation="4.4988888"
         id="feGaussianBlur4282" />
    </filter>
    <linearGradient
       inkscape:collect="always"
       xlink:href="#linearGradient4284"
       id="linearGradient4290"
       x1="1"
       y1="24"
       x2="4"
       y2="24"
       gradientUnits="userSpaceOnUse"
       gradientTransform="matrix(2.6956523,0,0,2.9047616,-18.695652,918.64794)" />
    <linearGradient
       inkscape:collect="always"
       xlink:href="#linearGradient4292"
       id="linearGradient4298"
       x1="47"
       y1="24"
       x2="44"
       y2="24"
       gradientUnits="userSpaceOnUse"
       gradientTransform="matrix(2.6956523,0,0,2.9047616,9.3043477,918.64794)" />
    <linearGradient
       inkscape:collect="always"
       xlink:href="#linearGradient4284"
       id="linearGradient3878"
       x1="2"
       y1="64"
       x2="10"
       y2="64"
       gradientUnits="userSpaceOnUse" />
    <linearGradient
       inkscape:collect="always"
       xlink:href="#linearGradient4292"
       id="linearGradient3891"
       x1="126"
       y1="988.36218"
       x2="118"
       y2="988.36218"
       gradientUnits="userSpaceOnUse" />
    <filter
       inkscape:collect="always"
       id="filter3901"
       x="-0.24539393"
       width="1.4907879"
       y="-0.23472463"
       height="1.4694493"
       color-interpolation-filters="sRGB">
      <feGaussianBlur
         inkscape:collect="always"
         stdDeviation="2.2494444"
         id="feGaussianBlur3903" />
    </filter>
    <linearGradient
       inkscape:collect="always"
       xlink:href="#linearGradient4284"
       id="linearGradient3084"
       gradientUnits="userSpaceOnUse"
       x1="2"
       y1="64"
       x2="10"
       y2="64" />
    <linearGradient
       inkscape:collect="always"
       xlink:href="#linearGradient4292"
       id="linearGradient3086"
       gradientUnits="userSpaceOnUse"
       x1="126"
       y1="988.36218"
       x2="118"
       y2="988.36218" />
    <linearGradient
       inkscape:collect="always"
       xlink:href="#linearGradient4292"
       id="linearGradient3089"
       gradientUnits="userSpaceOnUse"
       x1="126"
       y1="988.36218"
       x2="118"
       y2="988.36218"
       gradientTransform="matrix(0.125,0,0,0.125,0,920.81693)" />
    <linearGradient
       inkscape:collect="always"
       xlink:href="#linearGradient4284"
       id="linearGradient3092"
       gradientUnits="userSpaceOnUse"
       x1="2"
       y1="64"
       x2="10"
       y2="64"
       gradientTransform="matrix(0.125,0,0,0.125,0,1036.3622)" />
  </defs>
  <sodipodi:namedview
     id="base"
     pagecolor="#ffffff"
     bordercolor="#666666"
     borderopacity="1.0"
     inkscape:pageopacity="0.0"
     inkscape:pageshadow="2"
     inkscape:zoom="10"
     inkscape:cx="7.8873243"
     inkscape:cy="36.141574"
     inkscape:document-units="px"
     inkscape:current-layer="layer1"
     showgrid="true"
     inkscape:window-width="1301"
     inkscape:window-height="744"
     inkscape:window-x="65"
     inkscape:window-y="24"
     inkscape:window-maximized="1"
     showguides="true"
     inkscape:guide-bbox="true">
    <inkscape:grid
       type="xygrid"
       id="grid2987"
       empspacing="5"
       visible="true"
       enabled="true"
       snapvisiblegridlinesonly="true" />
  </sodipodi:namedview>
  <metadata
     id="metadata7">
    <rdf:RDF>
      <cc:Work
         rdf:about="">
        <dc:format>image/svg+xml</dc:format>
        <dc:type
           rdf:resource="http://purl.org/dc/dcmitype/StillImage" />
        <dc:title></dc:title>
      </cc:Work>
    </rdf:RDF>
  </metadata>
  <g
     inkscape:label="Layer 1"
     inkscape:groupmode="layer"
     id="layer1"
     transform="translate(0,-1036.3622)">
    <path
       style="opacity:0.05;fill:#000000;fill-opacity:1;stroke:none"
       d="M 1.03125,1036.4872 C 0.45908603,1036.4872 0,1036.9463 0,1037.5185 l 0,13.6875 c 0,0.5722 0.45908603,1.0312 1.03125,1.0312 l 13.9375,0 c 0.572164,0 1.03125,-0.459 1.03125,-1.0312 l 0,-13.6875 c 0,-0.5722 -0.459086,-1.0313 -1.03125,-1.0313 l -13.9375,0 z m 0.109375,0.125 13.71875,0 c 0.563083,0 1.015625,0.4526 1.015625,1.0157 l 0,13.4687 c 0,0.5631 -0.452542,1.0156 -1.015625,1.0156 l -13.71875,0 c -0.56308205,0 -1.015625,-0.4525 -1.015625,-1.0156 l 0,-13.4687 c 0,-0.5631 0.452543,-1.0157 1.015625,-1.0157 z"
       id="rect3911"
       inkscape:connector-curvature="0" />
    <path
       style="opacity:0.1;fill:#000000;fill-opacity:1;stroke:none"
       d="m 1.140625,1036.6122 c -0.56308205,0 -1.015625,0.4526 -1.015625,1.0157 l 0,13.4687 c 0,0.5631 0.452543,1.0156 1.015625,1.0156 l 13.71875,0 c 0.563083,0 1.015625,-0.4525 1.015625,-1.0156 l 0,-13.4687 c 0,-0.5631 -0.452542,-1.0157 -1.015625,-1.0157 l -13.71875,0 z m 0.054687,0.062 13.609376,0 c 0.558541,0 1.007812,0.4493 1.007812,1.0078 l 0,13.3594 c 0,0.5586 -0.449271,1.0078 -1.007812,1.0078 l -13.609376,0 c -0.55854105,0 -1.0078125,-0.4492 -1.0078125,-1.0078 l 0,-13.3594 c 0,-0.5585 0.44927145,-1.0078 1.0078125,-1.0078 z"
       id="rect3909"
       inkscape:connector-curvature="0" />
    <rect
       ry="1.0081968"
       y="1036.6747"
       x="0.1875"
       height="15.375"
       width="15.625"
       id="rect3907"
       style="opacity:0.2;fill:#000000;fill-opacity:1;stroke:none" />
    <rect
       style="fill:#edefe7;fill-opacity:1;stroke:none"
       id="rect2985"
       width="15.499999"
       height="15.249999"
       x="0.25"
       y="1036.7372"
       ry="1" />
    <path
       style="fill:#e4e392;fill-opacity:1;stroke:none"
       d="m 0.25,1042.8622 0,3 15.5,0 0,-3 -15.5,0 z"
       id="rect3759"
       inkscape:connector-curvature="0" />
    <path
       style="fill:#986db3;fill-opacity:1;stroke:none"
       d="m 0.25,1039.8622 0,3 15.5,0 0,-3 -15.5,0 z"
       id="rect3761"
       inkscape:connector-curvature="0" />
    <path
       sodipodi:type="arc"
       style="fill:#ff7373;fill-opacity:1;stroke:none"
       id="path3985"
       sodipodi:cx="6.5"
       sodipodi:cy="7"
       sodipodi:rx="2.5"
       sodipodi:ry="2"
       d="M 9,7 A 2.5,2 0 1 1 4,7 2.5,2 0 1 1 9,7 z"
       transform="matrix(0.35,0,0,0.4375,0.60000005,1035.4247)" />
    <path
       inkscape:connector-curvature="0"
       id="path3893"
       d="m 0.25,1045.8622 0,3 15.5,0 0,-3 -15.5,0 z"
       style="fill:#986db3;fill-opacity:1;stroke:none" />
    <path
       sodipodi:type="arc"
       style="opacity:0.5;fill:#000000;fill-opacity:1;stroke:none;filter:url(#filter3901)"
       id="path3895"
       sodipodi:cx="-13"
       sodipodi:cy="31.5"
       sodipodi:rx="11"
       sodipodi:ry="11.5"
       d="m -2,31.5 a 11,11.5 0 1 1 -22,0 11,11.5 0 1 1 22,0 z"
       transform="matrix(0.45454545,0,0,0.4347826,13.909091,1030.7166)" />
    <path
       transform="matrix(0.45454545,0,0,0.4347826,13.909091,1030.6666)"
       d="m -2,31.5 a 11,11.5 0 1 1 -22,0 11,11.5 0 1 1 22,0 z"
       sodipodi:ry="11.5"
       sodipodi:rx="11"
       sodipodi:cy="31.5"
       sodipodi:cx="-13"
       id="path4063"
       style="fill:#f6fbe6;fill-opacity:1;stroke:none"
       sodipodi:type="arc" />
    <path
       sodipodi:type="arc"
       style="fill:#72517b;fill-opacity:1;stroke:none"
       id="path4073"
       sodipodi:cx="-13"
       sodipodi:cy="31.5"
       sodipodi:rx="11"
       sodipodi:ry="11.5"
       d="m -2,31.5 a 11,11.5 0 1 1 -22,0 11,11.5 0 1 1 22,0 z"
       transform="matrix(-0.38636365,0,0,-0.3695652,2.9772723,1056.0035)" />
    <path
       transform="matrix(-0.3181818,0,0,0.30434783,3.863636,1034.7753)"
       d="m -2,31.5 a 11,11.5 0 1 1 -22,0 11,11.5 0 1 1 22,0 z"
       sodipodi:ry="11.5"
       sodipodi:rx="11"
       sodipodi:cy="31.5"
       sodipodi:cx="-13"
       id="path4083"
       style="fill:#e4e9d5;fill-opacity:1;stroke:none"
       sodipodi:type="arc" />
    <path
       sodipodi:type="arc"
       style="fill:#4b3052;fill-opacity:1;stroke:none"
       id="path4113"
       sodipodi:cx="-13"
       sodipodi:cy="31.5"
       sodipodi:rx="11"
       sodipodi:ry="11.5"
       d="m -2,31.5 a 11,11.5 0 1 1 -22,0 11,11.5 0 1 1 22,0 z"
       transform="matrix(-0.25,0,0,0.23898976,4.7499995,1036.8357)" />
    <path
       style="opacity:0.1;fill:#ffffff;fill-opacity:1;stroke:none"
       d="m 9.8906245,1042.367 c -0.515625,1.9968 -3.609375,1.3097 -4.2539065,3.4032 0.4798695,0.8039 1.3586435,1.342 2.363281,1.342 1.5187835,0 2.75,-1.2305 2.75,-2.7484 0,-0.786 -0.330087,-1.4959 -0.8593745,-1.9968 z"
       id="path4251"
       inkscape:connector-curvature="0"
       sodipodi:nodetypes="ccssc" />
    <path
       transform="matrix(-0.046875,0,0,0.04481058,7.49352,1044.2405)"
       d="m -2,31.5 a 11,11.5 0 1 1 -22,0 11,11.5 0 1 1 22,0 z"
       sodipodi:ry="11.5"
       sodipodi:rx="11"
       sodipodi:cy="31.5"
       sodipodi:cx="-13"
       id="path4256"
       style="opacity:0.4;fill:#ffffff;fill-opacity:1;stroke:none;filter:url(#filter4262)"
       sodipodi:type="arc" />
    <path
       transform="matrix(-0.0703125,0,0,0.06721587,6.6588015,1040.9936)"
       d="m -2,31.5 a 11,11.5 0 1 1 -22,0 11,11.5 0 1 1 22,0 z"
       sodipodi:ry="11.5"
       sodipodi:rx="11"
       sodipodi:cy="31.5"
       sodipodi:cx="-13"
       id="path4266"
       style="opacity:0.45;fill:#ffffff;fill-opacity:1;stroke:none;filter:url(#filter4280)"
       sodipodi:type="arc" />
    <path
       style="opacity:0.2;fill:url(#linearGradient3092);fill-opacity:1;stroke:none"
       d="m 1.25,1036.7372 c -0.554,0 -1,0.446 -1,1 l 0,13.25 c 0,0.554 0.446,1 1,1 l 0,-15.25 z"
       id="rect3865"
       inkscape:connector-curvature="0" />
    <path
       style="opacity:0.2;fill:url(#linearGradient3089);fill-opacity:1;stroke:none"
       d="m 14.75,1036.7372 0,15.25 c 0.554,0 1,-0.446 1,-1 l 0,-13.25 c 0,-0.554 -0.446,-1 -1,-1 z"
       id="rect3880"
       inkscape:connector-curvature="0" />
  </g>
</svg>
