<?xml version="1.0" encoding="UTF-8" standalone="no"?>
<!-- Created with Inkscape (http://www.inkscape.org/) -->

<svg
   xmlns:dc="http://purl.org/dc/elements/1.1/"
   xmlns:cc="http://creativecommons.org/ns#"
   xmlns:rdf="http://www.w3.org/1999/02/22-rdf-syntax-ns#"
   xmlns:svg="http://www.w3.org/2000/svg"
   xmlns="http://www.w3.org/2000/svg"
   xmlns:xlink="http://www.w3.org/1999/xlink"
   xmlns:sodipodi="http://sodipodi.sourceforge.net/DTD/sodipodi-0.dtd"
   xmlns:inkscape="http://www.inkscape.org/namespaces/inkscape"
   width="22"
   height="22"
   id="svg2"
   version="1.1"
   inkscape:version="0.48.4 r9939"
   sodipodi:docname="22.svg"
   inkscape:export-filename="/home/me4oslav/Desktop/22/kazam.png"
   inkscape:export-xdpi="90"
   inkscape:export-ydpi="90">
  <defs
     id="defs4">
    <linearGradient
       id="linearGradient4292">
      <stop
         style="stop-color:#63570f;stop-opacity:0.68627453;"
         offset="0"
         id="stop4294" />
      <stop
         style="stop-color:#63570f;stop-opacity:0.05882353;"
         offset="1"
         id="stop4296" />
    </linearGradient>
    <linearGradient
       id="linearGradient4284">
      <stop
         style="stop-color:#63570f;stop-opacity:0.68627453;"
         offset="0"
         id="stop4286" />
      <stop
         style="stop-color:#63570f;stop-opacity:0.05882353;"
         offset="1"
         id="stop4288" />
    </linearGradient>
    <linearGradient
       id="linearGradient4123">
      <stop
         id="stop4125"
         offset="0"
         style="stop-color:#5e4b8e;stop-opacity:1;" />
      <stop
         id="stop4127"
         offset="1"
         style="stop-color:#4b3052;stop-opacity:1;" />
    </linearGradient>
    <linearGradient
       id="linearGradient4103">
      <stop
         id="stop4105"
         offset="0"
         style="stop-color:#4b3052;stop-opacity:1;" />
      <stop
         id="stop4107"
         offset="1"
         style="stop-color:#72517b;stop-opacity:1;" />
    </linearGradient>
    <linearGradient
       id="linearGradient4091">
      <stop
         style="stop-color:#bfc3af;stop-opacity:1;"
         offset="0"
         id="stop4093" />
      <stop
         style="stop-color:#e4ead3;stop-opacity:1;"
         offset="1"
         id="stop4095" />
    </linearGradient>
    <linearGradient
       id="linearGradient4077">
      <stop
         id="stop4079"
         offset="0"
         style="stop-color:#a1a399;stop-opacity:1;" />
      <stop
         id="stop4081"
         offset="1"
         style="stop-color:#f2f6e7;stop-opacity:1;" />
    </linearGradient>
    <linearGradient
       id="linearGradient4065">
      <stop
         style="stop-color:#989993;stop-opacity:1;"
         offset="0"
         id="stop4067" />
      <stop
         style="stop-color:#f6fbe6;stop-opacity:1;"
         offset="1"
         id="stop4069" />
    </linearGradient>
    <linearGradient
       gradientTransform="matrix(1.134951,0,0,1.2361642,-4.8508081,-239.56373)"
       gradientUnits="userSpaceOnUse"
       y2="1017.3622"
       x2="41"
       y1="1014.3622"
       x1="36"
       id="linearGradient3930"
       xlink:href="#linearGradient3924"
       inkscape:collect="always" />
    <linearGradient
       id="linearGradient3826">
      <stop
         id="stop3828"
         offset="0"
         style="stop-color:#949494;stop-opacity:1;" />
      <stop
         id="stop3830"
         offset="1"
         style="stop-color:#fdfdfd;stop-opacity:1;" />
    </linearGradient>
    <linearGradient
       id="linearGradient3863">
      <stop
         style="stop-color:#949498;stop-opacity:1;"
         offset="0"
         id="stop3865" />
      <stop
         style="stop-color:#d7d7d8;stop-opacity:1;"
         offset="1"
         id="stop3867" />
    </linearGradient>
    <linearGradient
       id="linearGradient3873">
      <stop
         id="stop3875"
         offset="0"
         style="stop-color:#111b46;stop-opacity:1;" />
      <stop
         id="stop3877"
         offset="1"
         style="stop-color:#1b447f;stop-opacity:1;" />
    </linearGradient>
    <linearGradient
       id="linearGradient3893">
      <stop
         style="stop-color:#2e4d72;stop-opacity:1;"
         offset="0"
         id="stop3895" />
      <stop
         style="stop-color:#353563;stop-opacity:1;"
         offset="1"
         id="stop3897" />
    </linearGradient>
    <linearGradient
       id="linearGradient3924">
      <stop
         id="stop3926"
         offset="0"
         style="stop-color:#477eae;stop-opacity:1;" />
      <stop
         id="stop3928"
         offset="1"
         style="stop-color:#5064aa;stop-opacity:1;" />
    </linearGradient>
    <linearGradient
       id="linearGradient3948">
      <stop
         id="stop3950"
         offset="0"
         style="stop-color:#ffffff;stop-opacity:0.05882353;" />
      <stop
         id="stop3952"
         offset="1"
         style="stop-color:#ffffff;stop-opacity:0.68627453;" />
    </linearGradient>
    <linearGradient
       id="linearGradient3956">
      <stop
         id="stop3958"
         offset="0"
         style="stop-color:#ffffff;stop-opacity:0.68627453;" />
      <stop
         id="stop3960"
         offset="1"
         style="stop-color:#ffffff;stop-opacity:0.05882353;" />
    </linearGradient>
    <linearGradient
       inkscape:collect="always"
       xlink:href="#linearGradient3826"
       id="linearGradient3987"
       gradientUnits="userSpaceOnUse"
       x1="-3.9999995"
       y1="35.000019"
       x2="-3.9999995"
       y2="12.00002" />
    <linearGradient
       inkscape:collect="always"
       xlink:href="#linearGradient3826"
       id="linearGradient3989"
       gradientUnits="userSpaceOnUse"
       x1="-3.9999995"
       y1="35.000019"
       x2="-3.9999995"
       y2="12.00002" />
    <linearGradient
       inkscape:collect="always"
       xlink:href="#linearGradient3863"
       id="linearGradient3991"
       gradientUnits="userSpaceOnUse"
       x1="-3.9999995"
       y1="35.000019"
       x2="-3.9999995"
       y2="12.00002" />
    <linearGradient
       inkscape:collect="always"
       xlink:href="#linearGradient3873"
       id="linearGradient3993"
       gradientUnits="userSpaceOnUse"
       x1="-3.9999995"
       y1="35.000019"
       x2="-3.9999995"
       y2="12.00002" />
    <linearGradient
       inkscape:collect="always"
       xlink:href="#linearGradient3893"
       id="linearGradient3995"
       gradientUnits="userSpaceOnUse"
       x1="-3.9999995"
       y1="35.000019"
       x2="-3.9999995"
       y2="12.00002" />
    <linearGradient
       inkscape:collect="always"
       xlink:href="#linearGradient3956"
       id="linearGradient4002"
       gradientUnits="userSpaceOnUse"
       x1="1"
       y1="24"
       x2="4"
       y2="24"
       gradientTransform="translate(117.99188,1004.8064)" />
    <linearGradient
       inkscape:collect="always"
       xlink:href="#linearGradient3948"
       id="linearGradient4005"
       gradientUnits="userSpaceOnUse"
       x1="44"
       y1="24"
       x2="47"
       y2="24"
       gradientTransform="translate(117.99188,1004.8064)" />
    <linearGradient
       inkscape:collect="always"
       xlink:href="#linearGradient4103"
       id="linearGradient4101"
       gradientUnits="userSpaceOnUse"
       x1="-13"
       y1="43.000004"
       x2="-13"
       y2="20.000004" />
    <filter
       inkscape:collect="always"
       id="filter4262"
       x="-0.49078786"
       width="1.9815757"
       y="-0.46944925"
       height="1.9388984"
       color-interpolation-filters="sRGB">
      <feGaussianBlur
         inkscape:collect="always"
         stdDeviation="4.4988888"
         id="feGaussianBlur4264" />
    </filter>
    <filter
       inkscape:collect="always"
       id="filter4280"
       x="-0.49078786"
       width="1.9815757"
       y="-0.46944925"
       height="1.9388984"
       color-interpolation-filters="sRGB">
      <feGaussianBlur
         inkscape:collect="always"
         stdDeviation="4.4988888"
         id="feGaussianBlur4282" />
    </filter>
    <linearGradient
       inkscape:collect="always"
       xlink:href="#linearGradient4284"
       id="linearGradient4290"
       x1="1"
       y1="24"
       x2="4"
       y2="24"
       gradientUnits="userSpaceOnUse"
       gradientTransform="matrix(2.6956523,0,0,2.9047616,-18.695652,918.64794)" />
    <linearGradient
       inkscape:collect="always"
       xlink:href="#linearGradient4292"
       id="linearGradient4298"
       x1="47"
       y1="24"
       x2="44"
       y2="24"
       gradientUnits="userSpaceOnUse"
       gradientTransform="matrix(2.6956523,0,0,2.9047616,9.3043477,918.64794)" />
    <linearGradient
       inkscape:collect="always"
       xlink:href="#linearGradient4284"
       id="linearGradient3878"
       x1="2"
       y1="64"
       x2="10"
       y2="64"
       gradientUnits="userSpaceOnUse" />
    <linearGradient
       inkscape:collect="always"
       xlink:href="#linearGradient4292"
       id="linearGradient3891"
       x1="126"
       y1="988.36218"
       x2="118"
       y2="988.36218"
       gradientUnits="userSpaceOnUse" />
    <filter
       inkscape:collect="always"
       id="filter3901"
       x="-0.24539393"
       width="1.4907879"
       y="-0.23472463"
       height="1.4694493"
       color-interpolation-filters="sRGB">
      <feGaussianBlur
         inkscape:collect="always"
         stdDeviation="2.2494444"
         id="feGaussianBlur3903" />
    </filter>
    <linearGradient
       inkscape:collect="always"
       xlink:href="#linearGradient4284"
       id="linearGradient3084"
       gradientUnits="userSpaceOnUse"
       x1="2"
       y1="64"
       x2="10"
       y2="64" />
    <linearGradient
       inkscape:collect="always"
       xlink:href="#linearGradient4292"
       id="linearGradient3086"
       gradientUnits="userSpaceOnUse"
       x1="126"
       y1="988.36218"
       x2="118"
       y2="988.36218" />
    <linearGradient
       inkscape:collect="always"
       xlink:href="#linearGradient4292"
       id="linearGradient3089"
       gradientUnits="userSpaceOnUse"
       x1="126"
       y1="988.36218"
       x2="118"
       y2="988.36218"
       gradientTransform="matrix(0.171875,0,0,0.17063453,0,872.71352)" />
    <linearGradient
       inkscape:collect="always"
       xlink:href="#linearGradient4284"
       id="linearGradient3092"
       gradientUnits="userSpaceOnUse"
       x1="2"
       y1="64"
       x2="10"
       y2="64"
       gradientTransform="matrix(0.15625,0,0,0.17063453,0.6875,1030.4418)" />
    <linearGradient
       inkscape:collect="always"
       xlink:href="#linearGradient4284"
       id="linearGradient3886"
       x1="1"
       y1="11"
       x2="3"
       y2="11"
       gradientUnits="userSpaceOnUse" />
    <linearGradient
       inkscape:collect="always"
       xlink:href="#linearGradient4284"
       id="linearGradient3890"
       gradientUnits="userSpaceOnUse"
       x1="1"
       y1="11"
       x2="3"
       y2="11"
       gradientTransform="matrix(-1,0,0,-1,22,1052.3622)" />
    <filter
       inkscape:collect="always"
       id="filter3914"
       x="-0.24539393"
       width="1.4907879"
       y="-0.23472463"
       height="1.4694493">
      <feGaussianBlur
         inkscape:collect="always"
         stdDeviation="2.2494444"
         id="feGaussianBlur3916" />
    </filter>
  </defs>
  <sodipodi:namedview
     id="base"
     pagecolor="#ffffff"
     bordercolor="#666666"
     borderopacity="1.0"
     inkscape:pageopacity="0.0"
     inkscape:pageshadow="2"
     inkscape:zoom="52.791472"
     inkscape:cx="12.340804"
     inkscape:cy="24.875917"
     inkscape:document-units="px"
     inkscape:current-layer="layer1"
     showgrid="true"
     inkscape:window-width="1301"
     inkscape:window-height="744"
     inkscape:window-x="65"
     inkscape:window-y="24"
     inkscape:window-maximized="1"
     showguides="true"
     inkscape:guide-bbox="true">
    <inkscape:grid
       type="xygrid"
       id="grid2987"
       empspacing="5"
       visible="true"
       enabled="true"
       snapvisiblegridlinesonly="true" />
  </sodipodi:namedview>
  <metadata
     id="metadata7">
    <rdf:RDF>
      <cc:Work
         rdf:about="">
        <dc:format>image/svg+xml</dc:format>
        <dc:type
           rdf:resource="http://purl.org/dc/dcmitype/StillImage" />
        <dc:title></dc:title>
      </cc:Work>
    </rdf:RDF>
  </metadata>
  <g
     inkscape:label="Layer 1"
     inkscape:groupmode="layer"
     id="layer1"
     transform="translate(0,-1030.3622)">
    <path
       style="fill:#000000;fill-opacity:1;stroke:none;opacity:0.05"
       d="M 1.09375 0 C 0.48434999 0 0 0.48434999 0 1.09375 L 0 20.90625 C 0 21.51565 0.48434999 22 1.09375 22 L 20.90625 22 C 21.51565 22 22 21.51565 22 20.90625 L 22 1.09375 C 22 0.48434999 21.51565 0 20.90625 0 L 1.09375 0 z M 1.5625 0.5 L 20.4375 0.5 C 21.0192 0.5 21.5 0.98080003 21.5 1.5625 L 21.5 20.4375 C 21.5 21.0192 21.0192 21.5 20.4375 21.5 L 1.5625 21.5 C 0.98080003 21.5 0.5 21.0192 0.5 20.4375 L 0.5 1.5625 C 0.5 0.98080003 0.98080003 0.5 1.5625 0.5 z "
       transform="translate(0,1030.3622)"
       id="rect3922" />
    <path
       style="fill:#000000;fill-opacity:1;stroke:none;opacity:0.1"
       d="M 1.5625 0.5 C 0.98080003 0.5 0.5 0.98080003 0.5 1.5625 L 0.5 20.4375 C 0.5 21.0192 0.98080003 21.5 1.5625 21.5 L 20.4375 21.5 C 21.0192 21.5 21.5 21.0192 21.5 20.4375 L 21.5 1.5625 C 21.5 0.98080003 21.0192 0.5 20.4375 0.5 L 1.5625 0.5 z M 1.78125 0.75 L 20.21875 0.75 C 20.7866 0.75 21.25 1.2134 21.25 1.78125 L 21.25 20.21875 C 21.25 20.7866 20.7866 21.25 20.21875 21.25 L 1.78125 21.25 C 1.2134 21.25 0.75 20.7866 0.75 20.21875 L 0.75 1.78125 C 0.75 1.2134 1.2134 0.75 1.78125 0.75 z "
       transform="translate(0,1030.3622)"
       id="rect3920" />
    <rect
       rx="1.025"
       ry="1.025"
       y="1031.1122"
       x="0.75"
       height="20.5"
       width="20.5"
       id="rect3918"
       style="fill:#000000;fill-opacity:1;stroke:none;opacity:0.2" />
    <rect
       style="fill:#edefe7;fill-opacity:1;stroke:none"
       id="rect2985"
       width="20"
       height="20"
       x="1"
       y="1031.3622"
       ry="1"
       rx="1" />
    <path
       style="fill:#e4e392;fill-opacity:1;stroke:none"
       d="m 1,1039.3622 0,4 20,0 0,-4 -20,0 z"
       id="rect3759"
       inkscape:connector-curvature="0" />
    <path
       style="fill:#986db3;fill-opacity:1;stroke:none"
       d="m 1,1035.3622 0,4 20,0 0,-4 -20,0 z"
       id="rect3761"
       inkscape:connector-curvature="0" />
    <path
       sodipodi:type="arc"
       style="fill:#ff7373;fill-opacity:1;stroke:none"
       id="path3985"
       sodipodi:cx="6.5"
       sodipodi:cy="7"
       sodipodi:rx="2.5"
       sodipodi:ry="2"
       d="M 9,7 A 2.5,2 0 1 1 4,7 2.5,2 0 1 1 9,7 z"
       transform="matrix(0.4,0,0,0.5,2.4,1029.8622)" />
    <path
       inkscape:connector-curvature="0"
       id="path3893"
       d="m 1,1043.3622 0,4 20,0 0,-4 -20,0 z"
       style="fill:#986db3;fill-opacity:1;stroke:none" />
    <path
       sodipodi:type="arc"
       style="opacity:0.4;fill:#000000;fill-opacity:1;stroke:none;filter:url(#filter3914)"
       id="path3908"
       sodipodi:cx="-13"
       sodipodi:cy="31.5"
       sodipodi:rx="11"
       sodipodi:ry="11.5"
       d="m -2,31.5 a 11,11.5 0 1 1 -22,0 11,11.5 0 1 1 22,0 z"
       transform="matrix(0.63636364,0,0,0.60869565,19.272727,1022.6881)" />
    <path
       transform="matrix(0.63636364,0,0,0.60869565,19.272727,1022.1883)"
       d="m -2,31.5 a 11,11.5 0 1 1 -22,0 11,11.5 0 1 1 22,0 z"
       sodipodi:ry="11.5"
       sodipodi:rx="11"
       sodipodi:cy="31.5"
       sodipodi:cx="-13"
       id="path4063"
       style="fill:#f6fbe6;fill-opacity:1;stroke:none"
       sodipodi:type="arc" />
    <path
       sodipodi:type="arc"
       style="fill:#72517b;fill-opacity:1;stroke:none"
       id="path4073"
       sodipodi:cx="-13"
       sodipodi:cy="31.5"
       sodipodi:rx="11"
       sodipodi:ry="11.5"
       d="m -2,31.5 a 11,11.5 0 1 1 -22,0 11,11.5 0 1 1 22,0 z"
       transform="matrix(-0.54545455,0,0,-0.52173913,3.9090909,1057.797)" />
    <path
       transform="matrix(-0.45454545,0,0,0.43478261,5.0909091,1027.6665)"
       d="m -2,31.5 a 11,11.5 0 1 1 -22,0 11,11.5 0 1 1 22,0 z"
       sodipodi:ry="11.5"
       sodipodi:rx="11"
       sodipodi:cy="31.5"
       sodipodi:cx="-13"
       id="path4083"
       style="fill:#e4e9d5;fill-opacity:1;stroke:none"
       sodipodi:type="arc" />
    <path
       sodipodi:type="arc"
       style="fill:#4b3052;fill-opacity:1;stroke:none"
       id="path4113"
       sodipodi:cx="-13"
       sodipodi:cy="31.5"
       sodipodi:rx="11"
       sodipodi:ry="11.5"
       d="m -2,31.5 a 11,11.5 0 1 1 -22,0 11,11.5 0 1 1 22,0 z"
       transform="matrix(-0.36363636,0,0,0.34762183,6.2727273,1030.4144)" />
    <path
       style="opacity:0.1;fill:#ffffff;fill-opacity:1;stroke:none"
       d="m 13.750001,1038.46 c -0.750001,2.9045 -5.2500009,1.9051 -6.1875014,4.9502 0.697992,1.1693 1.9762088,1.952 3.4375004,1.952 2.209139,0 4,-1.7898 4,-3.9977 0,-1.1433 -0.480127,-2.1758 -1.249999,-2.9045 z"
       id="path4251"
       inkscape:connector-curvature="0"
       sodipodi:nodetypes="ccssc" />
    <path
       transform="matrix(-0.06818181,0,0,0.0651791,10.263303,1041.1852)"
       d="m -2,31.5 a 11,11.5 0 1 1 -22,0 11,11.5 0 1 1 22,0 z"
       sodipodi:ry="11.5"
       sodipodi:rx="11"
       sodipodi:cy="31.5"
       sodipodi:cx="-13"
       id="path4256"
       style="opacity:0.4;fill:#ffffff;fill-opacity:1;stroke:none;filter:url(#filter4262)"
       sodipodi:type="arc" />
    <path
       transform="matrix(-0.10227273,0,0,0.09776863,9.0491666,1036.4625)"
       d="m -2,31.5 a 11,11.5 0 1 1 -22,0 11,11.5 0 1 1 22,0 z"
       sodipodi:ry="11.5"
       sodipodi:rx="11"
       sodipodi:cy="31.5"
       sodipodi:cx="-13"
       id="path4266"
       style="opacity:0.45;fill:#ffffff;fill-opacity:1;stroke:none;filter:url(#filter4280)"
       sodipodi:type="arc" />
    <path
       style="opacity:0.05000000000000000;fill:url(#linearGradient3886);fill-opacity:1.0;stroke:none"
       d="M 2 1 C 1.446 1 1 1.446 1 2 L 1 20 C 1 20.554 1.446 21 2 21 L 3 21 L 3 1 L 2 1 z "
       transform="translate(0,1030.3622)"
       id="rect3104" />
    <path
       id="path3888"
       d="m 20,1051.3622 c 0.554,0 1,-0.446 1,-1 l 0,-18 c 0,-0.554 -0.446,-1 -1,-1 l -1,0 0,20 1,0 z"
       style="opacity:0.05;fill:url(#linearGradient3890);fill-opacity:1;stroke:none"
       inkscape:connector-curvature="0" />
  </g>
</svg>
